<svg width="24" height="24" viewBox="0 0 24 24" fill="none" xmlns="http://www.w3.org/2000/svg">
<path d="M12 1.21989e-07C9.62663 1.21989e-07 7.30655 0.703788 5.33316 2.02236C3.35977 3.34094 1.8217 5.21508 0.913451 7.4078C0.00519936 9.60051 -0.232441 12.0133 0.230582 14.3411C0.693604 16.6689 1.83649 18.807 3.51472 20.4853C5.19295 22.1635 7.33115 23.3064 9.65892 23.7694C11.9867 24.2324 14.3995 23.9948 16.5922 23.0865C18.7849 22.1783 20.6591 20.6402 21.9776 18.6668C23.2962 16.6934 24 14.3734 24 12C24.0002 10.4241 23.69 8.86354 23.087 7.40753C22.484 5.95152 21.6001 4.62856 20.4858 3.51422C19.3714 2.39987 18.0485 1.51596 16.5925 0.912988C15.1365 0.310011 13.5759 -0.000224593 12 1.21989e-07ZM14.3326 15.779H5.57446L9.67254 8.2261H18.4307L14.3326 15.779Z" fill="white" fill-opacity="0.3"/>
</svg>
