<svg width="24" height="24" viewBox="0 0 24 24" fill="none" xmlns="http://www.w3.org/2000/svg">
<path d="M24 11.999C23.9857 9.69481 23.3165 7.44284 22.0713 5.50901C20.8261 3.57517 19.0569 2.04022 16.9727 1.0854C14.8884 0.130587 12.5762 -0.204222 10.3089 0.120511C8.0417 0.445243 5.91416 1.41596 4.17752 2.91803C2.44088 4.4201 1.16768 6.3908 0.508253 8.59744C-0.151176 10.8041 -0.169293 13.1545 0.456042 15.3711C1.08138 17.5878 2.32405 19.5781 4.03732 21.1071C5.75059 22.6361 7.86292 23.6399 10.1249 24V15.5105H7.07631V11.999H10.1249V9.32235C10.1249 6.2782 11.9152 4.59648 14.6584 4.59648C15.5585 4.60899 16.4565 4.6881 17.3451 4.83316V7.82136H15.8303C15.5719 7.78783 15.3094 7.81309 15.0621 7.89528C14.8147 7.97746 14.5889 8.11448 14.4012 8.29621C14.2135 8.47794 14.0688 8.69976 13.9777 8.94528C13.8866 9.19081 13.8515 9.45379 13.8749 9.71481V11.9947H17.2031L16.6711 15.5062H13.8749V23.9957C16.7045 23.5338 19.278 22.0725 21.1336 19.8739C22.9892 17.6753 24.0054 14.8834 24 11.999Z" fill="white"/>
</svg>
