<svg width="24" height="24" viewBox="0 0 24 24" fill="none" xmlns="http://www.w3.org/2000/svg">
<path d="M12.0001 24C9.62677 24.0001 7.30667 23.2964 5.33325 21.9779C3.35982 20.6594 1.82171 18.7852 0.913443 16.5925C0.00517619 14.3997 -0.232451 11.9868 0.230615 9.65903C0.693681 7.3312 1.83664 5.19299 3.51494 3.5148C5.76535 1.26431 8.81757 0 12.0001 0C15.1827 0 18.2349 1.26431 20.4853 3.5148C22.7357 5.76529 24 8.81761 24 12.0003C24 15.183 22.7357 18.2353 20.4853 20.4858C19.3736 21.6035 18.0512 22.4896 16.5947 23.0929C15.1382 23.6961 13.5766 24.0044 12.0001 24ZM8.40035 6.15044C7.80386 6.15112 7.232 6.38839 6.81021 6.81019C6.38843 7.23198 6.15117 7.80387 6.15049 8.40038V15.6002C6.15117 16.1967 6.38843 16.7686 6.81021 17.1904C7.232 17.6122 7.80386 17.8494 8.40035 17.8501H15.5999C16.1964 17.8494 16.7683 17.6122 17.19 17.1904C17.6118 16.7686 17.8491 16.1967 17.8498 15.6002V8.40038C17.8491 7.80387 17.6118 7.23198 17.19 6.81019C16.7683 6.38839 16.1964 6.15112 15.5999 6.15044H8.40035ZM15.5999 16.6999H8.40035C8.10988 16.6961 7.83237 16.579 7.62696 16.3736C7.42155 16.1682 7.30448 15.8907 7.30071 15.6002V10.8003H9.05088C8.84608 11.2868 8.7648 11.8165 8.81427 12.342C8.86375 12.8676 9.04245 13.3727 9.33445 13.8125C9.62645 14.2523 10.0227 14.613 10.4879 14.8625C10.953 15.112 11.4727 15.2425 12.0006 15.2425C12.5284 15.2425 13.0481 15.112 13.5133 14.8625C13.9784 14.613 14.3747 14.2523 14.6667 13.8125C14.9587 13.3727 15.1374 12.8676 15.1868 12.342C15.2363 11.8165 15.155 11.2868 14.9502 10.8003H16.7004V15.6002C16.6966 15.8908 16.5794 16.1685 16.3739 16.3739C16.1683 16.5793 15.8905 16.6963 15.5999 16.6999ZM12.0001 14.0505C11.6217 14.0529 11.2501 13.9499 10.9269 13.7529C10.6038 13.5559 10.3419 13.2729 10.1706 12.9354C9.99927 12.598 9.92534 12.2195 9.95707 11.8423C9.9888 11.4652 10.1249 11.1044 10.3502 10.8003C10.5376 10.5374 10.7851 10.3231 11.0721 10.1752C11.3591 10.0274 11.6773 9.9502 12.0001 9.9502C12.323 9.9502 12.6411 10.0274 12.9281 10.1752C13.2151 10.3231 13.4626 10.5374 13.65 10.8003C13.8753 11.1044 14.0115 11.4652 14.0432 11.8423C14.0749 12.2195 14.001 12.598 13.8297 12.9354C13.6584 13.2729 13.3965 13.5559 13.0733 13.7529C12.7502 13.9499 12.3786 14.0529 12.0001 14.0505ZM16.4999 9.50092H14.5003V7.50041H16.4999V9.50007V9.50092Z" fill="white"/>
</svg>
