<svg width="24" height="24" viewBox="0 0 24 24" fill="none" xmlns="http://www.w3.org/2000/svg">
<path d="M12.0001 24C9.62677 24.0001 7.30667 23.2964 5.33325 21.9779C3.35982 20.6594 1.82171 18.7852 0.913443 16.5925C0.00517617 14.3997 -0.232451 11.9868 0.230615 9.65903C0.693681 7.3312 1.83664 5.19299 3.51494 3.5148C5.76535 1.26431 8.81757 0 12.0001 0C15.1827 0 18.2349 1.26431 20.4853 3.5148C22.7357 5.76529 24 8.81761 24 12.0003C24 15.183 22.7357 18.2353 20.4853 20.4858C19.3736 21.6035 18.0512 22.4897 16.5947 23.0929C15.1382 23.6961 13.5766 24.0044 12.0001 24ZM7.40099 15.7005C8.92577 15.9044 10.4626 16.0047 12.001 16.0005C13.5393 16.0023 15.076 15.9021 16.601 15.7005H16.5033C16.7354 15.7059 16.9631 15.6357 17.1519 15.5006C17.3408 15.3656 17.4807 15.1728 17.5506 14.9513V14.9016C17.5473 14.8745 17.55 14.847 17.5586 14.821C17.5672 14.7951 17.5815 14.7714 17.6004 14.7516C17.6098 14.6591 17.6218 14.5494 17.6364 14.4225C17.7378 13.619 17.7925 12.8102 17.8001 12.0003C17.8114 11.0797 17.7443 10.1598 17.5995 9.25064C17.6028 9.22352 17.6 9.19601 17.5914 9.17008C17.5829 9.14414 17.5686 9.12043 17.5498 9.10065V9.05094C17.4805 8.83274 17.3433 8.64236 17.1584 8.50747C16.9734 8.37259 16.7502 8.30024 16.5213 8.30096H16.5958C15.0724 8.09795 13.537 7.99772 12.0001 8.00096C10.4619 7.99933 8.92516 8.09954 7.40013 8.30096H7.49784C7.26575 8.29584 7.03825 8.36607 6.84943 8.50113C6.66061 8.63618 6.52063 8.82878 6.45047 9.05008V9.09979C6.45371 9.12691 6.45093 9.15441 6.44234 9.18033C6.43375 9.20625 6.41955 9.22997 6.40076 9.24979C6.39133 9.3415 6.37933 9.45035 6.36476 9.57721C6.26307 10.381 6.20813 11.1901 6.2002 12.0003C6.20789 12.8102 6.26255 13.6189 6.36391 14.4225C6.37848 14.5494 6.39048 14.6582 6.3999 14.7499C6.39655 14.777 6.39927 14.8046 6.40787 14.8305C6.41647 14.8565 6.43073 14.8802 6.44962 14.8999V14.9496C6.51905 15.1678 6.6562 15.3581 6.84115 15.4929C7.0261 15.6278 7.24923 15.7002 7.47812 15.6996L7.40099 15.7005ZM11.2005 14.0008C11.1733 14.0042 11.1458 14.0014 11.1199 13.9928C11.0939 13.9842 11.0702 13.97 11.0505 13.9511C11.0046 13.9275 10.9662 13.8916 10.9397 13.8474C10.9132 13.8032 10.8996 13.7524 10.9005 13.7008V10.3006C10.8996 10.2491 10.9132 10.1983 10.9397 10.154C10.9662 10.1098 11.0046 10.0739 11.0505 10.0503C11.0966 10.0257 11.1482 10.0129 11.2005 10.0129C11.2528 10.0129 11.3043 10.0257 11.3505 10.0503L13.7006 11.75C13.7633 11.8184 13.7986 11.9075 13.8 12.0003C13.8208 12.0405 13.8248 12.0874 13.8112 12.1306C13.7913 12.1835 13.7512 12.2263 13.6997 12.2497L11.3496 13.9494C11.33 13.9683 11.3065 13.9826 11.2807 13.9914C11.2549 14.0001 11.2275 14.0031 11.2005 13.9999V14.0008Z" fill="white" fill-opacity="0.3"/>
</svg>
