<svg width="227" height="76" viewBox="0 0 227 76" fill="none" xmlns="http://www.w3.org/2000/svg">
<path d="M37.9101 75.0789H38.5731C38.5998 75.0825 38.627 75.0797 38.6524 75.0708C38.6779 75.0619 38.7008 75.047 38.7195 75.0275C38.7381 75.008 38.7518 74.9844 38.7596 74.9586C38.7673 74.9327 38.7689 74.9054 38.7641 74.8789V66.5589C38.7641 66.5189 38.7741 66.4989 38.7941 66.4989C38.8131 66.4989 38.8331 66.5139 38.8531 66.5439L41.1791 70.3159C41.2008 70.3559 41.2327 70.3895 41.2715 70.4133C41.3102 70.4372 41.3546 70.4505 41.4001 70.4519H41.7391C41.7846 70.4505 41.8289 70.4372 41.8677 70.4133C41.9064 70.3895 41.9383 70.3559 41.9601 70.3159L44.2871 66.5479C44.3071 66.5179 44.3261 66.5029 44.3461 66.5029C44.3661 66.5029 44.3751 66.5229 44.3751 66.5629V74.8789C44.3702 74.9055 44.3717 74.9329 44.3795 74.9589C44.3873 74.9848 44.4012 75.0085 44.4199 75.028C44.4387 75.0475 44.4618 75.0623 44.4874 75.0712C44.5129 75.08 44.5403 75.0827 44.5671 75.0789H45.2301C45.2568 75.0825 45.284 75.0797 45.3094 75.0708C45.3349 75.0619 45.3578 75.047 45.3765 75.0275C45.3951 75.008 45.4088 74.9844 45.4166 74.9586C45.4243 74.9327 45.4259 74.9054 45.4211 74.8789V64.7239C45.4259 64.6974 45.4243 64.6701 45.4166 64.6442C45.4088 64.6184 45.3951 64.5948 45.3765 64.5753C45.3578 64.5558 45.3349 64.541 45.3094 64.532C45.284 64.5231 45.2568 64.5203 45.2301 64.5239H44.5371C44.4915 64.5251 44.4471 64.5384 44.4083 64.5622C44.3695 64.5861 44.3377 64.6198 44.3161 64.6599L41.6101 69.0199C41.5801 69.0799 41.5511 69.0799 41.5211 69.0199L38.8211 64.6639C38.7996 64.6237 38.7678 64.5899 38.729 64.566C38.6901 64.5421 38.6456 64.5289 38.6001 64.5279H37.9101C37.8833 64.5243 37.8561 64.5271 37.8307 64.536C37.8052 64.545 37.7823 64.5598 37.7636 64.5793C37.745 64.5988 37.7313 64.6224 37.7235 64.6483C37.7158 64.6741 37.7142 64.7014 37.7191 64.7279V74.8789C37.7142 74.9054 37.7158 74.9327 37.7235 74.9586C37.7313 74.9844 37.745 75.008 37.7636 75.0275C37.7823 75.047 37.8052 75.0619 37.8307 75.0708C37.8561 75.0797 37.8833 75.0825 37.9101 75.0789ZM49.9571 75.1999C50.5961 75.2136 51.2285 75.069 51.7981 74.7789C52.3137 74.5111 52.7408 74.0999 53.0281 73.5949C53.326 73.053 53.4757 72.4421 53.4621 71.8239V64.7239C53.4669 64.6974 53.4653 64.6701 53.4576 64.6442C53.4498 64.6184 53.4361 64.5948 53.4175 64.5753C53.3988 64.5558 53.3759 64.541 53.3504 64.532C53.325 64.5231 53.2978 64.5203 53.2711 64.5239H52.6101C52.5833 64.5203 52.5561 64.5231 52.5307 64.532C52.5052 64.541 52.4823 64.5558 52.4636 64.5753C52.445 64.5948 52.4313 64.6184 52.4235 64.6442C52.4158 64.6701 52.4142 64.6974 52.4191 64.7239V71.8529C52.4316 72.1741 52.3779 72.4944 52.2613 72.794C52.1446 73.0935 51.9675 73.3658 51.7411 73.5939C51.5048 73.8204 51.2251 73.9966 50.9188 74.112C50.6125 74.2273 50.286 74.2793 49.9591 74.2649C49.6321 74.2794 49.3056 74.2275 48.9993 74.1121C48.693 73.9968 48.4132 73.8205 48.1771 73.5939C47.9507 73.3658 47.7738 73.0934 47.6573 72.7939C47.5408 72.4944 47.4873 72.174 47.5001 71.8529V64.7239C47.5047 64.6973 47.503 64.67 47.4951 64.6442C47.4872 64.6184 47.4734 64.5948 47.4547 64.5753C47.436 64.5558 47.413 64.541 47.3875 64.5321C47.362 64.5232 47.3348 64.5204 47.3081 64.5239H46.6431C46.6163 64.5203 46.5891 64.5231 46.5637 64.532C46.5382 64.541 46.5153 64.5558 46.4966 64.5753C46.478 64.5948 46.4643 64.6184 46.4565 64.6442C46.4488 64.6701 46.4472 64.6974 46.4521 64.7239V71.8239C46.4381 72.4432 46.5907 73.0548 46.8941 73.5949C47.1851 74.0994 47.6143 74.5102 48.1311 74.7789C48.6955 75.0682 49.3229 75.2132 49.9571 75.2009V75.1999ZM57.4971 75.2009C58.4029 75.2559 59.2987 74.9857 60.0231 74.4389C60.3179 74.1952 60.553 73.8871 60.71 73.5383C60.8671 73.1895 60.942 72.8092 60.9291 72.4269C60.9437 71.9367 60.8037 71.4542 60.5291 71.0479C60.2484 70.6566 59.8869 70.3302 59.4691 70.0909C58.9089 69.7716 58.3283 69.4897 57.7311 69.2469C57.0337 68.9662 56.5157 68.7376 56.1771 68.5609C55.8751 68.4143 55.6088 68.2034 55.3971 67.9429C55.2069 67.6824 55.1107 67.3651 55.1241 67.0429C55.1101 66.8033 55.1531 66.5639 55.2496 66.3442C55.346 66.1245 55.4932 65.9307 55.6791 65.7789C56.148 65.4574 56.7117 65.3034 57.2791 65.3419C57.9492 65.2996 58.6125 65.4975 59.1501 65.8999C59.3623 66.0722 59.5321 66.2909 59.6465 66.5392C59.761 66.7874 59.8169 67.0586 59.8101 67.3319V67.5579C59.8052 67.5844 59.8068 67.6117 59.8145 67.6376C59.8223 67.6634 59.836 67.687 59.8546 67.7065C59.8733 67.726 59.8962 67.7409 59.9217 67.7498C59.9471 67.7587 59.9743 67.7615 60.0011 67.7579H60.6491C60.6758 67.7614 60.703 67.7586 60.7285 67.7497C60.754 67.7408 60.777 67.726 60.7957 67.7065C60.8144 67.687 60.8282 67.6634 60.8361 67.6376C60.844 67.6118 60.8457 67.5845 60.8411 67.5579V67.2709C60.8547 66.875 60.7766 66.4813 60.6131 66.1205C60.4495 65.7597 60.2048 65.4416 59.8981 65.1909C59.1635 64.6345 58.2552 64.357 57.3351 64.4079C56.4852 64.358 55.6444 64.6055 54.9571 65.1079C54.6699 65.3467 54.4425 65.6492 54.2928 65.9914C54.1432 66.3336 54.0755 66.706 54.0951 67.0789C54.0766 67.5568 54.2081 68.0285 54.4711 68.4279C54.7285 68.7915 55.0662 69.0909 55.4581 69.3029C56.0146 69.5982 56.5872 69.8622 57.1731 70.0939C57.7246 70.3149 58.2611 70.5718 58.7791 70.8629C59.1014 71.0402 59.3844 71.2811 59.6111 71.5709C59.7954 71.8342 59.8908 72.1496 59.8831 72.4709C59.8916 72.7183 59.8428 72.9643 59.7407 73.1898C59.6385 73.4153 59.4857 73.6142 59.2941 73.7709C58.7946 74.1305 58.185 74.3039 57.5711 74.2609C56.8949 74.2964 56.2263 74.1053 55.6711 73.7179C55.4488 73.5591 55.2683 73.3488 55.1452 73.1049C55.0221 72.8611 54.9599 72.591 54.9641 72.3179V71.9589C54.9689 71.9324 54.9673 71.9051 54.9596 71.8793C54.9518 71.8534 54.9381 71.8298 54.9195 71.8103C54.9008 71.7908 54.8779 71.776 54.8524 71.767C54.827 71.7581 54.7998 71.7553 54.7731 71.7589H54.1401C54.1132 71.7551 54.0859 71.7578 54.0604 71.7667C54.0348 71.7755 54.0117 71.7903 53.9929 71.8098C53.9742 71.8294 53.9603 71.853 53.9525 71.879C53.9447 71.9049 53.9432 71.9323 53.9481 71.9589V72.3789C53.9377 72.9068 54.0895 73.4251 54.3831 73.8639C54.6907 74.3061 55.1206 74.6491 55.6201 74.8509C56.2154 75.0936 56.8543 75.2117 57.4971 75.1979V75.2009ZM61.6951 75.0789H62.3571C62.3839 75.0827 62.4112 75.08 62.4367 75.0712C62.4623 75.0623 62.4854 75.0475 62.5042 75.028C62.5229 75.0085 62.5368 74.9848 62.5446 74.9589C62.5524 74.9329 62.5539 74.9055 62.5491 74.8789V64.7239C62.5537 64.6973 62.552 64.67 62.5441 64.6442C62.5362 64.6184 62.5224 64.5948 62.5037 64.5753C62.485 64.5558 62.462 64.541 62.4365 64.5321C62.411 64.5232 62.3838 64.5204 62.3571 64.5239H61.6951C61.6683 64.5204 61.6411 64.5232 61.6156 64.5321C61.5901 64.541 61.5671 64.5558 61.5484 64.5753C61.5297 64.5948 61.5159 64.6184 61.508 64.6442C61.5001 64.67 61.4984 64.6973 61.5031 64.7239V74.8789C61.4982 74.9055 61.4997 74.9329 61.5075 74.9589C61.5153 74.9848 61.5292 75.0085 61.5479 75.028C61.5667 75.0475 61.5898 75.0623 61.6154 75.0712C61.6409 75.08 61.6682 75.0827 61.6951 75.0789ZM66.8341 75.2149C67.4621 75.2282 68.084 75.0886 68.6461 74.8079C69.1533 74.5482 69.5751 74.1479 69.8611 73.6549C70.1575 73.1288 70.3074 72.5327 70.2951 71.9289V71.8529C70.2951 71.8029 70.2311 71.7779 70.1041 71.7779L69.4411 71.7479C69.3131 71.7379 69.2501 71.7929 69.2501 71.9139C69.2647 72.2294 69.2133 72.5445 69.0991 72.8389C68.9849 73.1334 68.8105 73.4008 68.5871 73.6239C68.3521 73.8419 68.0761 74.0108 67.7751 74.1208C67.4741 74.2309 67.1542 74.2799 66.8341 74.2649C66.5135 74.2795 66.1933 74.2297 65.8924 74.1184C65.5915 74.0071 65.3159 73.8365 65.0821 73.6169C64.8602 73.3947 64.6868 73.1289 64.5726 72.8363C64.4585 72.5437 64.4062 72.2307 64.4191 71.9169V67.6929C64.4062 67.3791 64.4585 67.0661 64.5726 66.7735C64.6868 66.4809 64.8602 66.2152 65.0821 65.9929C65.3159 65.7733 65.5915 65.6028 65.8924 65.4915C66.1933 65.3802 66.5135 65.3303 66.8341 65.3449C67.1542 65.3302 67.474 65.3792 67.775 65.4893C68.0759 65.5993 68.352 65.7681 68.5871 65.9859C68.8105 66.2091 68.9849 66.4764 69.0991 66.7709C69.2133 67.0654 69.2647 67.3804 69.2501 67.6959V67.7789C69.2501 67.7989 69.2641 67.8189 69.2941 67.8389C69.3236 67.8587 69.3585 67.8691 69.3941 67.8689H69.4381L70.1011 67.8239C70.2281 67.8039 70.2921 67.7489 70.2921 67.6579C70.3034 67.0625 70.1535 66.475 69.8581 65.9579C69.5704 65.4681 69.1488 65.0705 68.6431 64.8119C68.0809 64.5316 67.459 64.3923 66.8311 64.4059C66.2025 64.3922 65.5803 64.5345 65.0201 64.8199C64.5131 65.0861 64.0931 65.4922 63.8101 65.9899C63.5132 66.5189 63.3631 67.1175 63.3751 67.7239V71.8689C63.3625 72.4821 63.5126 73.0876 63.8101 73.6239C64.0919 74.1252 64.5133 74.5337 65.0231 74.7999C65.5831 75.086 66.2053 75.2286 66.8341 75.2149Z" fill="white"/>
<path d="M49.1968 27.731C46.7778 27.731 43.6378 28.091 42.4028 31.538C38.6448 32.361 37.7178 38.329 37.7178 43.165C37.7178 48.365 39.1598 55.256 45.2338 55.256C51.9768 55.256 54.6018 46.304 54.6018 38.432C54.6018 30.612 52.1818 27.731 49.1968 27.731ZM47.8068 52.531C44.6158 52.531 46.0568 44.145 46.0068 37.92C47.8588 36.271 47.1898 30.869 48.8368 30.869C54.3438 30.869 51.0498 52.529 47.8068 52.529V52.531ZM84.5068 36.429C84.1468 37.561 78.4848 53.818 77.4068 53.818C75.7068 53.818 76.0168 43.94 75.8628 40.442V39.618C75.8628 38.538 74.5758 37.098 71.4358 37.098C68.3478 37.098 68.3478 38.95 68.3478 39.979C68.3478 42.654 65.1048 53.407 63.5608 53.407C62.0168 53.407 61.8108 50.32 61.8108 48.416C61.8108 38.95 66.2888 29.792 71.3328 29.792C73.2378 29.792 73.5978 33.959 73.5978 35.143C73.5978 36.274 75.4508 35.657 75.4508 34.937C75.4508 27.425 71.6938 27.425 66.3918 27.425C58.7708 27.422 55.0648 38.431 55.0648 45.172C55.0648 52.323 58.3588 55.05 62.4248 55.05C66.4908 55.05 68.4478 47.23 68.8588 47.23C69.2198 47.23 70.4038 57.262 75.2418 57.262C75.5251 57.2817 75.8087 57.2287 76.0658 57.108C80.4408 55.564 85.4848 37.866 85.7428 36.683C85.9998 35.397 84.8158 35.345 84.5068 36.426V36.429ZM73.4408 23.204C76.0138 23.204 75.7048 24.593 76.5808 24.593C77.4568 24.593 76.0658 19.705 71.6908 19.705C67.9838 19.705 65.5138 20.786 62.9908 20.786C60.4678 20.786 60.6738 20.117 59.6908 20.117C58.7078 20.117 60.6688 24.438 63.1908 24.438C65.7648 24.438 68.7508 23.204 73.4348 23.204H73.4408ZM90.1178 27.731C87.6988 27.731 84.5588 28.091 83.3178 31.538C79.5608 32.361 78.6338 38.329 78.6338 43.165C78.6338 48.365 80.0758 55.256 86.1488 55.256C92.8918 55.256 95.5178 46.304 95.5178 38.432C95.5178 30.612 93.0978 27.732 90.1178 27.732V27.731ZM88.7278 52.532C85.5368 52.532 86.9778 44.146 86.9278 37.921C88.7808 36.274 88.1108 30.872 89.7588 30.872C95.2658 30.872 91.9718 52.532 88.7288 52.532H88.7278ZM162.897 0.000976562C148.697 0.000976562 103.345 12.245 103.345 28.194C103.345 29.737 104.838 28.966 104.838 27.782C104.838 23.872 113.383 19.242 124.192 15.229C123.429 17.7132 122.893 20.2617 122.592 22.843C118.938 24.443 116.261 26.033 116.261 27.062C116.21 28.4 118.114 30.098 119.401 30.149C120.317 29.8975 121.198 29.5348 122.026 29.069C121.923 30.8176 121.872 32.6696 121.872 34.625C121.872 39.307 123.672 56.233 130.365 56.233C131.394 56.233 132.63 55.719 132.63 55.359C130.656 49.0496 129.683 42.4697 129.747 35.859C129.774 32.1365 130.083 28.4215 130.674 24.746C135.512 22.379 140.608 20.167 142.874 20.219C144.161 20.27 145.859 20.836 145.911 19.756C145.962 18.572 144.264 16.977 142.668 16.823C140.815 16.772 136.388 17.852 131.653 19.395C132.476 15.695 133.197 13.119 133.197 12.347V12.247C145.297 8.54698 158.11 5.91898 164.441 5.91898C167.324 5.91898 169.486 7.20498 169.486 5.50698C169.486 3.80898 166.346 0.00697517 162.897 0.00697517V0.000976562ZM150.797 25.782C148.43 25.782 144.106 37.358 142.768 44.097C142.668 42.657 142.613 41.011 142.613 39.107C142.613 35.197 143.643 32.625 143.643 30.515C143.643 28.354 142.043 26.554 138.598 26.554C136.848 26.554 136.179 34.219 136.179 39.467C136.179 59.326 144.621 56.754 144.621 55.367C144.621 54.492 143.849 53.514 143.282 49.759C143.694 42.453 149.665 30.569 149.665 30.569C149.665 30.569 148.797 34.985 148.797 36.117C148.797 37.249 150.697 38.278 153.327 38.278C155.9 38.278 156.981 34.162 156.981 29.892C156.981 25.622 153.636 25.776 150.804 25.776L150.797 25.782ZM184.416 36.426C184.056 37.558 178.394 53.815 177.316 53.815C175.616 53.815 175.926 43.937 175.771 40.439V39.615C175.771 38.535 174.485 37.095 171.345 37.095C168.256 37.095 168.256 38.947 168.256 39.976C168.256 42.651 165.014 53.404 163.469 53.404C161.924 53.404 161.719 50.317 161.719 48.413C161.719 38.947 166.197 29.789 171.242 29.789C173.142 29.789 173.507 33.956 173.507 35.14C173.507 36.271 175.36 35.654 175.36 34.934C175.36 27.422 171.602 27.422 166.3 27.422C158.682 27.422 154.976 38.432 154.976 45.172C154.976 52.323 158.27 55.05 162.337 55.05C166.404 55.05 168.359 47.23 168.771 47.23C169.131 47.23 170.315 57.262 175.154 57.262C175.437 57.2817 175.72 57.2287 175.977 57.108C180.353 55.564 185.397 37.866 185.654 36.683C185.912 35.397 184.728 35.345 184.419 36.426H184.416ZM204.387 14.612C204.387 12.76 199.857 11.212 198.827 11.212C197.849 11.212 197.798 12.035 197.798 12.447C197.798 12.704 196.408 20.884 195.379 28.602C194.349 27.418 192.599 27.418 189.768 27.418C182.15 27.418 178.444 38.48 178.444 45.218C178.444 52.37 182.562 55.096 186.68 55.096C190.746 55.096 193.371 48.974 193.78 48.974C194.14 48.974 195.17 59.932 201.81 59.932C204.126 59.932 200.626 59.367 200.626 39.61C200.626 28.189 204.384 16.459 204.384 14.61L204.387 14.612ZM194.246 39.976C194.246 42.651 189.356 53.404 187.812 53.404C186.268 53.404 185.187 50.317 185.187 48.413C185.187 38.947 188.327 29.84 192.136 29.84C194.036 29.84 192.857 34.008 192.857 35.14C192.857 35.654 193.68 35.808 194.504 35.757C194.349 37.457 194.246 38.895 194.246 39.976ZM224.976 39.461C224.667 40.336 222.35 50.317 215.813 50.317C212.982 50.317 209.842 45.117 210.254 40.027C211.472 40.4122 212.735 40.6371 214.012 40.696C217.357 40.696 219.931 37.866 219.931 32.464C219.931 29.583 218.799 27.217 217.254 26.496C215.654 25.725 210.717 25.416 208.607 27.268C206.548 29.12 203.151 35.294 203.151 41.982C203.151 47.127 207.423 53.558 214.578 53.558C222.659 53.558 225.645 40.958 226.005 39.924C226.365 38.844 225.336 38.484 224.976 39.461ZM215.297 30.355C217.922 30.355 216.897 41.725 210.355 38.947C210.87 34.471 212.62 30.355 215.297 30.355Z" fill="white"/>
<path d="M22.3043 0C12.4613 0 2.05327 11.723 0.804273 26.058C0.75773 26.8317 1.01589 27.5928 1.5235 28.1786C2.03111 28.7643 2.74783 29.1281 3.52027 29.192C4.14227 29.192 3.97227 28.492 3.97227 26.116C3.97227 18.688 10.5343 2.844 22.0173 2.844C28.0703 2.844 28.5223 70.049 8.27127 70.049C4.42527 70.049 2.84127 66.916 2.21927 64.13C1.87927 62.853 -0.439728 63.607 0.0692722 65.23C1.20027 68.83 3.74627 75.213 10.5913 75.213C39.8403 75.215 40.5193 0 22.3043 0Z" fill="white"/>
</svg>
